<svg xmlns:xlink="http://www.w3.org/1999/xlink" xmlns="http://www.w3.org/2000/svg" width="300" height="175" viewBox="0 0 300 175" class="css-1j8o68f">
  <defs id="SvgjsDefs1790"/>
  <g id="SvgjsG1791" featurekey="rootContainer" transform="matrix(1,0,0,1,0,0)" fill="#F33535">
    <path xmlns="http://www.w3.org/2000/svg" fill-rule="evenodd" d=" M0,0 H300 V175 H0,0 z M2,2 H298 V173 H2,2 z M6,6 H294 V169 H6 z M8,8 H292 V167 H6,8 z " fill="#F33535"/>
  </g>
  <g id="SvgjsG1792" featurekey="nameFeature-0" transform="matrix(1.96695514751901,0,0,1.96695514751901,44.335170356921054,25.452396907694155)" fill="#F33535">
    <path d="M22.56 30.52 c0 6.32 -3.88 10.28 -9.12 10.28 c-3.76 0 -5.88 -2.08 -6.52 -3.72 c0 6.28 -0.04 9.92 0.2 13.6 c-0.6 -0.16 -1.12 -0.24 -2.08 -0.24 c-1 0 -1.52 0.08 -2.16 0.24 c0.32 -5.2 0.44 -10.44 0.44 -15.64 c0 -3.64 -0.08 -8.56 -0.2 -14.36 c0.56 0.12 1.2 0.24 1.96 0.24 c0.72 0 1.4 -0.12 1.96 -0.24 c-0.16 2.2 -0.16 2.8 -0.16 3.64 c0.64 -1.04 2.36 -3.84 6.8 -3.84 c4 0 8.88 2.92 8.88 10.04 z M12.96 22.48 c-2.16 0 -3.56 0.92 -4.48 2.08 c-0.8 1 -1.64 2.44 -1.64 6.4 c0 3.52 0.8 4.84 1.64 5.84 c1.04 1.24 2.4 1.96 4.24 1.96 c5.72 0 5.72 -6.76 5.72 -8.04 c0 -6.04 -2.88 -8.24 -5.48 -8.24 z M28.560000000000002 25.560000000000002 l-1.08 0 l0.16 -2.6 c1.24 -1 3.2 -2.44 6.48 -2.44 c1.56 0 3.76 0.32 5.36 1.8 c0.92 0.88 1.64 2.04 1.64 4.48 c0 1.16 -0.16 6.16 -0.16 7.2 c0 3.52 0 4.68 1.48 4.68 c0.48 0 0.8 -0.12 1 -0.2 l0.04 1.12 c-0.88 0.44 -1.76 0.88 -2.88 0.88 c-1.32 0 -2.6 -0.8 -3.04 -2.6 c-1.24 1.28 -2.92 2.8 -6.04 2.8 c-4.12 0 -5.52 -3.12 -5.52 -5.32 c0 -4.24 3.4 -5 6.64 -5.72 l3.48 -0.76 c1.12 -0.28 1.48 -0.8 1.48 -1.92 c0 -2.72 -1.88 -4.36 -4.48 -4.36 c-3.32 0 -4.2 2.12 -4.56 2.96 z M37.52 34.6 l0 -4.4 c-6.88 1.04 -7.64 2.68 -7.64 4.84 c0 2.6 2 3.36 3.4 3.36 c2.04 0 4.24 -1.6 4.24 -3.8 z M58.28 25.2 l-0.52 0 c-0.16 -0.6 -0.4 -1.6 -1.56 -2.4 c-0.84 -0.6 -1.96 -0.68 -2.6 -0.68 c-2.44 0 -3.72 1.28 -3.72 3 c0 2.32 2.36 3.16 3.76 3.52 c3.56 0.92 6.44 1.68 6.44 5.68 c0 3.04 -2.12 6.44 -7.68 6.44 c-3.24 0 -5.48 -1.36 -5.92 -1.68 c0.52 -0.96 0.84 -2.68 0.92 -3.2 l0.48 -0.12 c0.28 0.68 0.68 1.76 2.16 2.64 c1 0.6 2.04 0.76 2.92 0.76 c2.08 0 4.04 -1 4.04 -3.28 s-1.36 -2.72 -5.56 -4.08 c-1.72 -0.56 -4.56 -1.8 -4.56 -5.32 c0 -2.28 1.4 -5.96 6.92 -5.96 c2.76 0 4.36 0.84 5.28 1.32 c-0.4 1.04 -0.68 2 -0.8 3.36 z M76.04 25.2 l-0.52 0 c-0.16 -0.6 -0.4 -1.6 -1.56 -2.4 c-0.84 -0.6 -1.96 -0.68 -2.6 -0.68 c-2.44 0 -3.72 1.28 -3.72 3 c0 2.32 2.36 3.16 3.76 3.52 c3.56 0.92 6.44 1.68 6.44 5.68 c0 3.04 -2.12 6.44 -7.68 6.44 c-3.24 0 -5.48 -1.36 -5.92 -1.68 c0.52 -0.96 0.84 -2.68 0.92 -3.2 l0.48 -0.12 c0.28 0.68 0.68 1.76 2.16 2.64 c1 0.6 2.04 0.76 2.92 0.76 c2.08 0 4.04 -1 4.04 -3.28 s-1.36 -2.72 -5.56 -4.08 c-1.72 -0.56 -4.56 -1.8 -4.56 -5.32 c0 -2.28 1.4 -5.96 6.92 -5.96 c2.76 0 4.36 0.84 5.28 1.32 c-0.4 1.04 -0.68 2 -0.8 3.36 z M84.12 29.28 l0 -6.32 c-1.28 0 -1.52 0.04 -3.2 0.16 c0.04 -0.28 0.08 -0.56 0.08 -1 c0 -0.4 -0.04 -0.68 -0.08 -1 c0.32 0.04 0.76 0.08 1.28 0.12 s1.16 0.08 1.92 0.08 c0 -1.4 0 -2.36 -0.08 -4.44 c1.12 -0.2 3.32 -1.4 4.08 -1.84 c-0.2 3.32 -0.2 3.64 -0.28 6.28 c1.48 0 2.96 -0.08 4.32 -0.2 c-0.04 0.32 -0.08 0.56 -0.08 1 s0.04 0.68 0.08 0.96 c-1 -0.04 -2.68 -0.12 -4.32 -0.12 c-0.16 3.64 -0.2 7.32 -0.2 10.96 c0 3.24 0.52 5 2.8 5 c0.36 0 1.32 -0.16 1.84 -0.24 c-0.08 0.44 -0.08 0.6 0 1.12 c-0.92 0.52 -2.48 0.76 -3.4 0.76 c-2.28 0 -3.6 -1.24 -4.28 -2.4 c-0.32 -0.56 -0.56 -1.24 -0.56 -3.76 c0 -0.64 0 -1.36 0.08 -5.12 z M101.44 33.08 l-1.56 -16.2 c-0.08 -0.76 -0.12 -1.04 -0.12 -1.48 c0 -0.52 0 -2.92 2.24 -2.92 c2.12 0 2.24 2.12 2.24 2.88 c0 0.48 -0.04 0.88 -0.12 1.56 l-1.6 16.16 c-0.48 -0.08 -0.76 -0.04 -1.08 0 z M102.04 35.4 c1.4 0 2.52 1.16 2.52 2.52 c0 1.4 -1.12 2.56 -2.52 2.56 c-1.44 0 -2.56 -1.16 -2.56 -2.52 c0 -1.4 1.12 -2.56 2.56 -2.56 z" fill="#F33535"/>
  </g>
</svg>
