<?xml version="1.0" encoding="UTF-8" standalone="no"?>
<!-- Created with Inkscape (http://www.inkscape.org/) -->

<svg
   xmlns:dc="http://purl.org/dc/elements/1.1/"
   xmlns:cc="http://creativecommons.org/ns#"
   xmlns:rdf="http://www.w3.org/1999/02/22-rdf-syntax-ns#"
   xmlns:svg="http://www.w3.org/2000/svg"
   xmlns="http://www.w3.org/2000/svg"
   xmlns:sodipodi="http://sodipodi.sourceforge.net/DTD/sodipodi-0.dtd"
   xmlns:inkscape="http://www.inkscape.org/namespaces/inkscape"
   width="1027.8676"
   height="821.82654"
   id="svg2"
   version="1.1"
   inkscape:version="0.48.3.1 r9886"
   sodipodi:docname="Orange_Heels.svg"
   inkscape:export-filename="K:\Mis Documentos (1)\Vector\Sexy Heels\Megan_BlackRed2.png"
   inkscape:export-xdpi="90"
   inkscape:export-ydpi="90">
  <defs
     id="defs4">
    <filter
       inkscape:collect="always"
       id="filter3853"
       x="-0.13766271"
       width="1.2753254"
       y="-0.17295514"
       height="1.3459103"
       color-interpolation-filters="sRGB">
      <feGaussianBlur
         inkscape:collect="always"
         stdDeviation="5.6940471"
         id="feGaussianBlur3855" />
    </filter>
    <filter
       inkscape:collect="always"
       id="filter3874"
       x="-0.27816239"
       width="1.5563248"
       y="-0.086667798"
       height="1.1733356"
       color-interpolation-filters="sRGB">
      <feGaussianBlur
         inkscape:collect="always"
         stdDeviation="7.8993133"
         id="feGaussianBlur3876" />
    </filter>
    <filter
       inkscape:collect="always"
       id="filter3934"
       x="-0.21097296"
       width="1.4219459"
       y="-0.59791243"
       height="2.1958249"
       color-interpolation-filters="sRGB">
      <feGaussianBlur
         inkscape:collect="always"
         stdDeviation="15.947878"
         id="feGaussianBlur3936" />
    </filter>
    <filter
       inkscape:collect="always"
       id="filter3946"
       x="-0.10738437"
       width="1.2147686"
       y="-1.0954305"
       height="3.190861"
       color-interpolation-filters="sRGB">
      <feGaussianBlur
         inkscape:collect="always"
         stdDeviation="3.8046439"
         id="feGaussianBlur3948" />
    </filter>
    <filter
       inkscape:collect="always"
       id="filter4062"
       x="-0.24786744"
       width="1.4957349"
       y="-0.42051885"
       height="1.8410378"
       color-interpolation-filters="sRGB">
      <feGaussianBlur
         inkscape:collect="always"
         stdDeviation="12.437693"
         id="feGaussianBlur4064" />
    </filter>
    <filter
       inkscape:collect="always"
       id="filter4070"
       x="-0.11732027"
       width="1.2346405"
       y="-0.5877952"
       height="2.1755905"
       color-interpolation-filters="sRGB">
      <feGaussianBlur
         inkscape:collect="always"
         stdDeviation="4.6643599"
         id="feGaussianBlur4072" />
    </filter>
    <filter
       inkscape:collect="always"
       id="filter3891"
       x="-0.10737306"
       width="1.2147461"
       y="-0.039871428"
       height="1.0797429"
       color-interpolation-filters="sRGB">
      <feGaussianBlur
         inkscape:collect="always"
         stdDeviation="6.6211255"
         id="feGaussianBlur3893" />
    </filter>
    <filter
       inkscape:collect="always"
       id="filter3976"
       x="-0.29357761"
       width="1.5871552"
       y="-0.64729065"
       height="2.2945814"
       color-interpolation-filters="sRGB">
      <feGaussianBlur
         inkscape:collect="always"
         stdDeviation="4.0358155"
         id="feGaussianBlur3978" />
    </filter>
    <filter
       inkscape:collect="always"
       id="filter4004"
       x="-0.53643656"
       width="2.0728731"
       y="-0.51432037"
       height="2.0286407"
       color-interpolation-filters="sRGB">
      <feGaussianBlur
         inkscape:collect="always"
         stdDeviation="4.7294908"
         id="feGaussianBlur4006" />
    </filter>
    <filter
       inkscape:collect="always"
       id="filter4008"
       x="-0.14855847"
       width="1.2971169"
       y="-0.47127795"
       height="1.9425559"
       color-interpolation-filters="sRGB">
      <feGaussianBlur
         inkscape:collect="always"
         stdDeviation="4.7294908"
         id="feGaussianBlur4010" />
    </filter>
    <filter
       inkscape:collect="always"
       id="filter4188"
       x="-0.60912049"
       width="2.218241"
       y="-0.2614111"
       height="1.5228221"
       color-interpolation-filters="sRGB">
      <feGaussianBlur
         inkscape:collect="always"
         stdDeviation="11.19847"
         id="feGaussianBlur4190" />
    </filter>
    <filter
       inkscape:collect="always"
       id="filter4266"
       x="-0.7030189"
       width="2.4060378"
       y="-0.12760274"
       height="1.2552055"
       color-interpolation-filters="sRGB">
      <feGaussianBlur
         inkscape:collect="always"
         stdDeviation="11.225469"
         id="feGaussianBlur4268" />
    </filter>
    <filter
       color-interpolation-filters="sRGB"
       inkscape:collect="always"
       id="filter3853-1"
       x="-0.13766271"
       width="1.2753254"
       y="-0.17295514"
       height="1.3459103">
      <feGaussianBlur
         inkscape:collect="always"
         stdDeviation="5.6940471"
         id="feGaussianBlur3855-7" />
    </filter>
    <filter
       inkscape:collect="always"
       id="filter4013"
       x="-0.36530837"
       width="1.7306167"
       y="-0.10563134"
       height="1.2112627"
       color-interpolation-filters="sRGB">
      <feGaussianBlur
         inkscape:collect="always"
         stdDeviation="10.06025"
         id="feGaussianBlur4015" />
    </filter>
    <filter
       inkscape:collect="always"
       id="filter4025"
       x="-0.11467056"
       width="1.2293411"
       y="-0.10758196"
       height="1.2151639"
       color-interpolation-filters="sRGB">
      <feGaussianBlur
         inkscape:collect="always"
         stdDeviation="3.1140596"
         id="feGaussianBlur4027" />
    </filter>
  </defs>
  <sodipodi:namedview
     id="base"
     pagecolor="#ffffff"
     bordercolor="#666666"
     borderopacity="1.0"
     inkscape:pageopacity="0.0"
     inkscape:pageshadow="2"
     inkscape:zoom="0.39417442"
     inkscape:cx="538.35374"
     inkscape:cy="411.53304"
     inkscape:document-units="px"
     inkscape:current-layer="g4359"
     showgrid="false"
     fit-margin-top="0"
     fit-margin-left="0"
     fit-margin-right="0"
     fit-margin-bottom="0"
     inkscape:window-width="1024"
     inkscape:window-height="718"
     inkscape:window-x="0"
     inkscape:window-y="22"
     inkscape:window-maximized="1" />
  <metadata
     id="metadata7">
    <rdf:RDF>
      <cc:Work
         rdf:about="">
        <dc:format>image/svg+xml</dc:format>
        <dc:type
           rdf:resource="http://purl.org/dc/dcmitype/StillImage" />
        <dc:title />
      </cc:Work>
    </rdf:RDF>
  </metadata>
  <g
     inkscape:groupmode="layer"
     id="g4359"
     inkscape:label="Orange Heels"
     style="display:inline"
     transform="translate(-31.646263,-59.706529)">
    <g
       id="g3407">
      <g
         id="g3400"
         style="display:inline">
        <path
           style="color:#000000;fill:#ffccaa;fill-opacity:1;stroke:#d40000;stroke-width:2;stroke-linecap:butt;stroke-linejoin:miter;stroke-miterlimit:4;stroke-opacity:1;stroke-dasharray:none;stroke-dashoffset:0;marker:none;visibility:visible;display:inline;overflow:visible;enable-background:accumulate"
           d="m 517.54864,725.11673 c -11.08551,-21.02056 3.30876,-55.24822 27.3073,-70.27245 25.61796,-16.03806 34.3611,-40.04626 52.24523,-58.20031 18.44378,-18.72215 103.56886,-78.84621 163.8014,-186.63587 60.23254,-107.78967 123.78912,-215.52417 192.81338,-265.53339 59.71575,-43.26507 42.97669,52.12062 61.26455,115.21401 -56.08299,136.24513 -59.89942,272.49027 -168.24898,408.7354 -105.74787,132.97362 -277.24433,155.17945 -329.18288,56.69261 z"
           id="path4480"
           inkscape:connector-curvature="0"
           sodipodi:nodetypes="ssssscss" />
        <path
           sodipodi:nodetypes="ssssscss"
           inkscape:connector-curvature="0"
           id="path4441"
           d="m 37.844224,679.75468 c -11.08551,-21.02056 8.110963,-49.46 27.3073,-70.27245 C 86.964062,585.83333 100.7811,564.99631 118.66522,546.84226 137.109,528.12011 220.96561,472.43571 281.19815,364.64605 341.43069,256.85638 384.69169,122.48393 453.71595,72.47471 513.4317,29.20964 496.69264,124.59533 514.9805,187.68872 458.89751,323.93385 455.08108,354.89565 375.90642,512.70484 299.71886,664.5602 89.782774,778.24152 37.844224,679.75468 z"
           style="color:#000000;fill:#ffccaa;fill-opacity:1;stroke:#d40000;stroke-width:2;stroke-linecap:butt;stroke-linejoin:miter;stroke-miterlimit:4;stroke-opacity:1;stroke-dasharray:none;stroke-dashoffset:0;marker:none;visibility:visible;display:inline;overflow:visible;enable-background:accumulate" />
      </g>
      <path
         inkscape:connector-curvature="0"
         id="path4394"
         d="m 936.32813,789.45312 -22.94922,-6.42578 c 16.52343,-115.66406 8.26172,-232.24609 8.26172,-232.24609 l 80.78127,-162.48047 z"
         style="color:#000000;fill:#4c0000;stroke:#d40000;stroke-width:2;stroke-linecap:butt;stroke-linejoin:miter;stroke-miterlimit:4;stroke-opacity:1;stroke-dasharray:none;stroke-dashoffset:0;marker:none;visibility:visible;display:inline;overflow:visible;enable-background:accumulate" />
      <path
         sodipodi:nodetypes="ccccc"
         inkscape:connector-curvature="0"
         id="path4399"
         d="m 936.32813,789.45312 c 6.42578,0.91797 10.09765,-5.50781 10.09765,-5.50781 9.17969,-134.9414 44.42917,-346.86959 88.12492,-429.60937 -12.3003,-6.54838 -43.14445,37.63672 -43.14445,37.63672 -24.78516,91.79687 -55.07812,397.48046 -55.07812,397.48046 z"
         style="color:#000000;fill:#f44800;fill-opacity:1;stroke:#d40000;stroke-width:2;stroke-linecap:butt;stroke-linejoin:miter;stroke-miterlimit:4;stroke-opacity:1;stroke-dasharray:none;stroke-dashoffset:0;marker:none;visibility:visible;display:inline;overflow:visible;enable-background:accumulate" />
      <path
         inkscape:connector-curvature="0"
         id="path4402"
         d="m 458.98441,742.00492 -22.94922,-6.64604 c 16.52343,-119.62877 11.9336,-349.39196 11.9336,-349.39196 l 75.20668,-75.96246 z"
         style="color:#000000;fill:#4c0000;stroke:#d40000;stroke-width:2;stroke-linecap:butt;stroke-linejoin:miter;stroke-miterlimit:4;stroke-opacity:1;stroke-dasharray:none;stroke-dashoffset:0;marker:none;visibility:visible;display:inline;overflow:visible;enable-background:accumulate"
         sodipodi:nodetypes="ccccc" />
      <path
         sodipodi:nodetypes="ccccc"
         inkscape:connector-curvature="0"
         id="path4407"
         d="m 458.98441,742.00492 c 6.42578,0.94944 10.09765,-5.69661 10.09765,-5.69661 9.17969,-139.56689 48.10105,-369.2033 91.79682,-454.77922 -14.1363,5.56982 -46.81635,43.67401 -46.81635,43.67401 -24.78516,94.94346 -55.07812,416.80182 -55.07812,416.80182 z"
         style="color:#000000;fill:#f44800;fill-opacity:1;stroke:#d40000;stroke-width:2;stroke-linecap:butt;stroke-linejoin:miter;stroke-miterlimit:4;stroke-opacity:1;stroke-dasharray:none;stroke-dashoffset:0;marker:none;visibility:visible;display:inline;overflow:visible;enable-background:accumulate" />
      <path
         sodipodi:nodetypes="cccccc"
         inkscape:connector-curvature="0"
         id="path4412"
         d="m 534.21089,773.1808 -6.49102,-7.14012 c -4.68214,-15.24964 -12.31405,-26.56623 -12.33294,-48.03354 44.31941,-10.92295 140.17968,-73.00783 129.17129,15.57845 l -3.89462,64.91019 z"
         style="color:#000000;fill:#f44800;fill-opacity:1;stroke:#d40000;stroke-width:2;stroke-linecap:butt;stroke-linejoin:miter;stroke-miterlimit:4;stroke-opacity:1;stroke-dasharray:none;stroke-dashoffset:0;marker:none;visibility:visible;display:inline;overflow:visible;enable-background:accumulate" />
      <path
         sodipodi:nodetypes="sssccczss"
         inkscape:connector-curvature="0"
         id="path5242"
         d="m 673.91051,655.62257 c 43.20968,-19.00654 111.15432,-79.40563 146.25223,-162.00948 38.04246,-89.53394 71.07283,-154.78261 134.46761,-185.46134 48.00945,-23.23329 87.78215,-61.26459 96.92605,10.97276 l -95.09726,142.64592 c -56.6926,81.38132 -81.38132,230.42801 -81.38132,230.42801 -35.66148,64.00779 -149.82671,31.1243 -193.63816,26.46041 -43.81145,-4.66389 -85.04042,-11.93762 -80.32297,-27.18988 4.71745,-15.25226 32.63788,-18.18311 72.79382,-35.8464 z"
         style="color:#000000;fill:#deaa87;stroke:#d38d5f;stroke-width:2;stroke-linecap:butt;stroke-linejoin:miter;stroke-miterlimit:4;stroke-opacity:1;stroke-dasharray:none;stroke-dashoffset:0;marker:none;visibility:visible;display:inline;overflow:visible;enable-background:accumulate" />
      <path
         sodipodi:nodetypes="cccsccc"
         inkscape:connector-curvature="0"
         id="path4417"
         d="m 52.577256,732.93648 -9.087427,-7.14012 C 30.507791,704.376 35.700606,666.6691 35.700606,666.6691 c 22.970395,-10.46728 71.910074,-17.62554 84.446064,-17.26762 24.80085,0.7081 44.90329,25.77778 54.46175,44.58889 l -12.98204,73.34852 z"
         style="color:#000000;fill:#f44800;fill-opacity:1;stroke:#d40000;stroke-width:2;stroke-linecap:butt;stroke-linejoin:miter;stroke-miterlimit:4;stroke-opacity:1;stroke-dasharray:none;stroke-dashoffset:0;marker:none;visibility:visible;display:inline;overflow:visible;enable-background:accumulate" />
      <path
         style="color:#000000;fill:#deaa87;stroke:#d38d5f;stroke-width:2;stroke-linecap:butt;stroke-linejoin:miter;stroke-miterlimit:4;stroke-opacity:1;stroke-dasharray:none;stroke-dashoffset:0;marker:none;visibility:visible;display:inline;overflow:visible;enable-background:accumulate"
         d="m 193.91051,595.62257 c 43.20968,-19.00654 111.15432,-79.40563 146.25223,-162.00948 38.04246,-89.53394 71.07283,-154.78261 134.46761,-185.46134 48.00945,-23.23329 87.78215,-61.26459 96.92605,10.97276 -44.25634,46.65169 -94.84449,93.39203 -132.76902,139.95508 -56.6926,81.38132 -94.83551,212.48908 -94.83551,212.48908 -35.66148,64.00779 -104.08244,68.79605 -147.89389,64.13216 -43.81145,-4.66389 -92.21599,-11.93762 -87.49854,-27.18988 4.71745,-15.25226 45.19513,-35.22509 85.35107,-52.88838 z"
         id="path4444"
         inkscape:connector-curvature="0"
         sodipodi:nodetypes="sssccczss" />
      <path
         sodipodi:nodetypes="ccsccc"
         inkscape:connector-curvature="0"
         id="path4436"
         d="m 44.589481,725.4612 16.140639,76.01302 c 99.89877,59.93927 193.25576,29.50922 207.57986,29.76151 91.68861,1.61488 67.55565,-147.69527 74.34431,-161.27261 L 118.43207,738.68069 C 102.13352,740.8636 44.589481,725.4612 44.589481,725.4612 z"
         style="color:#000000;fill:#f44800;fill-opacity:1;stroke:#d40000;stroke-width:2;stroke-linecap:butt;stroke-linejoin:miter;stroke-miterlimit:4;stroke-opacity:1;stroke-dasharray:none;stroke-dashoffset:0;marker:none;visibility:visible;display:inline;overflow:visible;enable-background:accumulate" />
      <path
         sodipodi:nodetypes="ccccccsccccccccc"
         inkscape:connector-curvature="0"
         id="path4487"
         d="m 485.60547,64.257812 c 0,0 142.28515,114.746098 76.19141,223.984378 0,0 -67.92969,43.14453 -103.73047,89.96093 0,0 -84.45313,117.5 -100.97657,211.13282 0,0 -6.42578,111.07422 -48.65234,140.44922 0,0 -98.87176,25.81449 -195.25847,9.29106 56.05311,-46.89144 45.9372,-74.67838 27.2299,-99.74252 -20.69325,-27.72491 -72.515742,-24.07604 -99.59194,5.57197 9.294102,-29.80472 73.83843,-90.75284 79.43692,-100.5502 -30.292972,41.30859 38.55468,34.88281 38.55468,34.88281 40.39063,-0.91797 105.56641,15.60547 105.56641,15.60547 63.33984,8.26172 81.69922,-28.45703 81.69922,-28.45703 34.88281,-75.27344 119.33594,-295.58594 119.33594,-295.58594 21.11328,-51.40625 32.1289,-175.33203 32.1289,-175.33203 2.75391,-27.539063 -29.375,-32.128907 -29.375,-32.128907 5.50782,-6.425781 17.44141,0.917969 17.44141,0.917969 z"
         style="color:#000000;fill:#f44800;fill-opacity:1;stroke:#d40000;stroke-width:2;stroke-linecap:butt;stroke-linejoin:miter;stroke-miterlimit:4;stroke-opacity:1;stroke-dasharray:none;stroke-dashoffset:0;marker:none;visibility:visible;display:inline;overflow:visible;enable-background:accumulate" />
      <path
         inkscape:connector-curvature="0"
         id="path4489"
         d="m 527.08503,765.89069 15.22267,73.25911 c 99.89878,59.93927 264.49393,37.10526 264.49393,37.10526 94.19028,-0.95142 78.01619,-148.42105 78.01619,-148.42105 l -293.98785,48.52226 c -16.29855,2.18291 -63.74494,-10.46558 -63.74494,-10.46558 z"
         style="color:#000000;fill:#f44800;fill-opacity:1;stroke:#d40000;stroke-width:2;stroke-linecap:butt;stroke-linejoin:miter;stroke-miterlimit:4;stroke-opacity:1;stroke-dasharray:none;stroke-dashoffset:0;marker:none;visibility:visible;display:inline;overflow:visible;enable-background:accumulate" />
      <path
         sodipodi:nodetypes="cscscssccsccccssccccc"
         inkscape:connector-curvature="0"
         id="path4552"
         d="m 989.5625,136.78125 c 9.36612,14.9858 10.06059,91.89929 -10.09375,135.84375 -18.92885,41.2724 -36.70703,202.86719 -89.03125,311.1875 0,0 -26.00255,62.20874 -100.0625,69.78125 -60.35883,6.17159 -207.18131,-33.12404 -194.53125,-56.5 -6.62398,8.44554 -33.07493,43.23521 -55.14048,59.10011 -16.90965,12.15787 -24.18627,26.04791 -26.35952,39.08739 -2.37664,14.25984 1,26.1875 1,26.1875 1.92708,0.13464 3.14491,0.0458 5.07199,-2.77584 0,0 -2.27153,-9.6207 -0.13449,-22.44291 1.98916,-11.93496 8.10598,-25.33628 25.71875,-33.84375 49.24074,-7.32447 136.74853,31.5381 41.5,113.28125 0,0 156.05469,25.70703 264.375,-2.75 0,0 30.28516,-11.03516 34.875,-37.65625 0,0 12.59305,-83.62643 36.84375,-162.4375 21.56083,-70.06937 54.06418,-134.7788 68.71875,-157 10.7195,-16.25437 47.0032,-60.01817 65.1875,-95.46875 0,0 14.6797,-87.20703 -67.9375,-183.59375 z m -391.96875,458.0625 c -0.75248,0.71867 -1.3381,1.46479 -1.75,2.21875 0.96238,-1.2272 1.75,-2.21875 1.75,-2.21875 z"
         style="color:#000000;fill:#f44800;fill-opacity:1;stroke:#d40000;stroke-width:2;stroke-linecap:butt;stroke-linejoin:miter;stroke-miterlimit:4;stroke-opacity:1;stroke-dasharray:none;stroke-dashoffset:0;marker:none;visibility:visible;display:inline;overflow:visible;enable-background:accumulate" />
      <path
         sodipodi:nodetypes="ccc"
         inkscape:connector-curvature="0"
         id="path4580"
         d="m 534.21089,743.97122 c 27.32324,15.57844 57.48546,4.54371 85.03235,4.54371 -36.40185,-1.51457 -56.68823,-3.02914 -85.03235,-4.54371 z"
         style="color:#000000;fill:#ffffff;fill-opacity:1;stroke:none;stroke-width:2;marker:none;visibility:visible;display:inline;overflow:visible;filter:url(#filter3946);enable-background:accumulate" />
      <path
         sodipodi:nodetypes="sscs"
         inkscape:connector-curvature="0"
         id="path4582"
         d="m 652.34744,708.27061 c -25.77211,1.18224 -11.35456,19.0683 -2.59641,20.12216 88.40995,10.63827 169.4156,-62.96289 169.4156,-62.96289 -88.27786,40.89342 -148.67151,42.00824 -166.81919,42.84073 z"
         style="color:#000000;fill:#ffffff;fill-opacity:1;stroke:none;stroke-width:2;marker:none;visibility:visible;display:inline;overflow:visible;filter:url(#filter3934);enable-background:accumulate" />
      <path
         sodipodi:nodetypes="ccc"
         inkscape:connector-curvature="0"
         id="path4584"
         d="m 966.51277,358.40467 c -35.74426,104.91182 -45.99482,177.1957 -68.1557,218.74736 39.86201,-56.41277 59.89725,-187.08998 68.1557,-218.74736 z"
         style="color:#000000;fill:#ffffff;fill-opacity:1;stroke:none;stroke-width:2;marker:none;visibility:visible;display:inline;overflow:visible;filter:url(#filter3874);enable-background:accumulate" />
      <path
         sodipodi:nodetypes="csscc"
         inkscape:connector-curvature="0"
         id="path4588"
         d="m 160.97728,668.02629 c 75.31885,-28.48887 82.50465,-41.62532 97.36528,-54.52456 20.6295,-17.9067 26.30429,-9.25259 21.42037,0 -19.90751,37.71481 -105.80361,58.41917 -105.80361,58.41917 -12.33294,6.49102 -12.98204,-3.89461 -12.98204,-3.89461 z"
         style="color:#000000;fill:#ffffff;fill-opacity:1;stroke:none;stroke-width:2;marker:none;visibility:visible;display:inline;overflow:visible;filter:url(#filter4062);enable-background:accumulate" />
      <path
         sodipodi:nodetypes="ccc"
         inkscape:connector-curvature="0"
         id="path4592"
         d="m 42.840727,699.18318 c 24.554962,28.16005 70.728483,17.98812 95.417983,13.63115 -21.28047,-1.25217 -73.432797,3.18105 -95.417983,-13.63115 z"
         style="color:#000000;fill:#ffffff;fill-opacity:1;stroke:none;stroke-width:2;marker:none;visibility:visible;display:inline;overflow:visible;filter:url(#filter4070);enable-background:accumulate" />
    </g>
  </g>
</svg>
